<?xml version="1.0" standalone="no"?>
<!DOCTYPE svg PUBLIC "-//W3C//DTD SVG 20010904//EN"
 "http://www.w3.org/TR/2001/REC-SVG-20010904/DTD/svg10.dtd">
<svg version="1.0" xmlns="http://www.w3.org/2000/svg"
 width="300.000000pt" height="193.000000pt" viewBox="0 0 300.000000 193.000000"
 preserveAspectRatio="xMidYMid meet">

<g transform="translate(0.000000,193.000000) scale(0.100000,-0.100000)"
fill="#000000" stroke="none">
<path d="M1645 1921 c-18 -7 -17 -8 6 -14 26 -7 49 -43 49 -76 0 -10 -10 -31
-21 -46 -19 -24 -27 -26 -70 -23 -45 3 -49 1 -49 -20 0 -58 67 -131 126 -138
112 -14 178 133 111 248 -35 60 -99 89 -152 69z"/>
<path d="M1599 1893 c-13 -16 -12 -17 4 -4 9 7 17 15 17 17 0 8 -8 3 -21 -13z"/>
<path d="M1150 1845 c0 -37 -38 -67 -79 -63 l-33 4 5 -40 c6 -46 44 -86 81
-86 54 0 107 83 92 144 -7 28 -39 66 -56 66 -5 0 -10 -11 -10 -25z"/>
<path d="M1195 1629 c-145 -21 -276 -84 -343 -165 -132 -160 -100 -373 86
-574 l60 -65 6 55 c7 63 36 491 36 529 l0 26 -13 -25 c-18 -36 -79 -63 -144
-63 -29 0 -57 3 -60 7 -13 12 39 96 82 134 47 42 116 79 163 88 28 6 32 4 32
-15 0 -17 6 -21 30 -21 17 0 37 -9 48 -21 11 -11 45 -88 77 -172 32 -84 68
-173 81 -199 20 -39 24 -62 24 -135 l0 -88 -20 25 c-34 44 -87 152 -126 260
-20 58 -41 109 -44 113 -7 8 -15 -120 -26 -418 l-7 -170 49 -27 c110 -59 307
-114 428 -119 l59 -3 -2 85 c-2 87 -14 273 -31 464 -5 61 -10 123 -10 140 0
43 -12 24 -65 -107 -57 -141 -106 -223 -146 -243 -27 -14 -29 -14 -29 2 0 10
-3 50 -7 90 -5 62 -3 75 15 100 11 16 44 87 72 159 54 137 82 187 127 228 76
71 199 25 243 -90 16 -45 94 -479 126 -709 3 -27 8 -53 10 -57 6 -9 83 35 130
76 22 19 55 63 74 97 169 317 -230 744 -755 808 -101 12 -144 12 -230 0z"/>
<path d="M2951 537 c2 -1 13 -9 24 -17 19 -14 19 -14 6 3 -7 9 -18 17 -24 17
-6 0 -8 -1 -6 -3z"/>
<path d="M7 523 c-4 -3 -7 -26 -7 -50 l0 -43 60 0 60 0 0 50 0 50 -53 0 c-30
0 -57 -3 -60 -7z"/>
<path d="M810 441 l0 -90 -36 24 c-73 50 -165 23 -208 -60 -16 -30 -21 -58
-21 -115 1 -125 52 -193 147 -194 33 -1 55 5 77 22 36 27 43 27 39 4 -3 -14 5
-17 55 -17 l58 0 0 255 0 255 -56 3 -55 3 0 -90z m-46 -142 c64 -29 57 -178
-9 -195 -42 -10 -73 10 -85 56 -14 54 -4 106 27 130 30 23 34 24 67 9z"/>
<path d="M970 480 l0 -50 61 0 60 0 -3 48 -3 47 -57 3 -58 3 0 -51z"/>
<path d="M2729 498 c0 -2 -1 -25 -2 -53 -2 -47 -3 -50 -27 -47 -38 4 -64 -5
-93 -34 l-27 -27 0 27 c0 25 -2 26 -60 26 l-60 0 0 -190 0 -190 59 0 59 0 4
116 c3 108 5 117 27 135 13 10 38 19 57 19 28 0 34 4 34 21 0 12 5 19 13 16
11 -3 14 -43 16 -209 1 -72 30 -99 103 -99 32 0 61 2 66 5 4 2 6 21 4 40 -3
26 -9 36 -25 38 -28 4 -39 49 -35 146 l3 77 33 3 c29 3 32 6 32 37 0 31 -3 34
-32 37 -32 3 -33 4 -36 56 l-3 52 -55 0 c-29 0 -54 -1 -55 -2z"/>
<path d="M2992 480 c0 -14 2 -19 5 -12 2 6 2 18 0 25 -3 6 -5 1 -5 -13z"/>
<path d="M2946 482 c-2 -4 -1 -14 4 -22 7 -11 9 -9 7 8 -1 24 -3 26 -11 14z"/>
<path d="M2880 453 c0 -6 8 -17 18 -24 16 -13 16 -13 2 6 -8 11 -16 22 -17 24
-2 2 -3 0 -3 -6z"/>
<path d="M2969 433 c-13 -16 -12 -17 4 -4 16 13 21 21 13 21 -2 0 -10 -8 -17
-17z"/>
<path d="M328 382 c-16 -9 -28 -20 -28 -24 0 -5 -4 -8 -10 -8 -5 0 -10 9 -10
20 0 18 -7 20 -55 20 l-55 0 0 -190 0 -191 58 3 57 3 5 133 c4 117 7 135 24
148 28 20 53 17 70 -8 13 -18 16 -51 16 -150 l0 -128 60 0 60 0 0 148 c0 162
-11 205 -60 229 -35 18 -100 16 -132 -5z"/>
<path d="M1201 382 c-38 -18 -68 -55 -73 -87 -3 -17 3 -20 45 -23 41 -3 52 1
72 22 13 14 31 26 40 26 28 0 55 -20 55 -40 0 -20 -34 -35 -107 -46 -63 -10
-100 -37 -114 -83 -34 -114 70 -186 184 -128 44 23 47 23 47 6 0 -16 8 -19 60
-19 l59 0 -4 48 c-3 26 -7 96 -10 156 -6 123 -17 149 -70 172 -48 20 -142 18
-184 -4z m129 -271 c-13 -25 -57 -38 -79 -24 -20 12 -27 51 -11 67 6 6 30 16
53 22 41 10 42 10 45 -17 2 -16 -2 -37 -8 -48z"/>
<path d="M1646 375 c-34 -23 -36 -23 -36 -5 0 18 -7 20 -55 20 l-55 0 0 -190
0 -190 54 0 54 0 4 129 c3 110 6 132 22 150 21 23 42 26 66 11 12 -7 16 -39
20 -147 l5 -138 53 -3 52 -3 0 130 c0 118 2 133 20 151 26 26 55 25 74 -2 13
-18 16 -51 16 -150 l0 -128 60 0 60 0 0 138 c0 212 -17 247 -120 247 -48 0
-63 -4 -84 -24 l-25 -24 -31 27 c-42 35 -103 36 -154 1z"/>
<path d="M2164 381 c-27 -12 -46 -30 -57 -54 -25 -52 -22 -57 29 -57 35 0 54
6 76 25 34 28 56 31 84 11 32 -25 6 -49 -72 -67 -80 -18 -107 -31 -128 -61
-19 -26 -21 -87 -5 -122 26 -57 130 -71 190 -27 28 21 28 21 34 1 5 -17 15
-20 67 -20 54 0 59 2 52 18 -4 9 -11 80 -14 157 -4 99 -9 147 -20 162 -33 51
-159 69 -236 34z m146 -220 c0 -61 -66 -103 -104 -65 -32 31 -16 59 45 78 60
19 59 19 59 -13z"/>
<path d="M0 200 l0 -190 60 0 60 0 0 190 0 190 -60 0 -60 0 0 -190z"/>
<path d="M970 200 l0 -190 60 0 60 0 0 190 0 190 -60 0 -60 0 0 -190z"/>
</g>
</svg>
