<?xml version="1.0" standalone="no"?>
<!DOCTYPE svg PUBLIC "-//W3C//DTD SVG 20010904//EN"
 "http://www.w3.org/TR/2001/REC-SVG-20010904/DTD/svg10.dtd">
<svg version="1.0" xmlns="http://www.w3.org/2000/svg"
 width="225.000000pt" height="225.000000pt" viewBox="0 0 225.000000 225.000000"
 preserveAspectRatio="xMidYMid meet">

<g transform="translate(0.000000,225.000000) scale(0.100000,-0.100000)"
fill="#000000" stroke="none">
<path d="M1000 2045 c-225 -42 -418 -224 -475 -450 -19 -76 -19 -214 0 -290
58 -226 241 -403 466 -451 94 -20 221 -13 310 16 35 12 67 25 71 28 4 4 -17
51 -47 104 l-55 96 -42 -15 c-44 -15 -154 -19 -204 -7 -56 13 -146 68 -188
115 -175 195 -116 491 120 601 216 101 472 -20 530 -252 24 -94 14 -162 -40
-291 -6 -13 13 -29 82 -73 49 -31 92 -56 96 -56 4 0 22 33 41 73 107 234 60
503 -119 682 -147 146 -345 208 -546 170z"/>
<path d="M1515 1053 c-22 -25 -56 -55 -77 -66 -21 -12 -38 -26 -38 -31 0 -10
72 -141 93 -170 13 -18 16 -18 70 18 53 35 177 158 177 175 0 9 -166 121 -177
120 -5 0 -26 -21 -48 -46z"/>
<path d="M365 526 c-43 -18 -91 -77 -99 -120 -13 -69 25 -150 84 -181 33 -17
116 -20 156 -5 21 9 29 7 40 -7 12 -17 15 -16 41 10 26 26 27 29 11 41 -15 11
-16 16 -2 55 37 109 -45 222 -163 221 -21 -1 -52 -7 -68 -14z m115 -61 c32
-17 60 -61 60 -95 0 -37 -30 -81 -67 -96 -97 -41 -187 77 -122 160 36 46 80
56 129 31z"/>
<path d="M1095 453 c-21 -48 -53 -123 -71 -165 l-33 -78 34 0 c32 0 37 4 51
40 l16 40 69 0 69 0 16 -40 c14 -36 20 -40 50 -40 19 0 34 1 34 3 0 2 -31 75
-69 162 -65 153 -69 160 -98 163 -29 3 -32 0 -68 -85z m88 -50 c9 -27 17 -51
17 -55 0 -5 -18 -8 -40 -8 -22 0 -40 3 -40 8 0 14 34 102 40 102 3 0 14 -21
23 -47z"/>
<path d="M672 408 c5 -166 27 -198 139 -198 110 0 139 44 139 209 l0 111 -35
0 -35 0 0 -113 c0 -130 -9 -147 -73 -147 -56 0 -67 24 -67 152 l0 108 -36 0
-36 0 4 -122z"/>
<path d="M1390 370 l0 -160 33 0 32 0 -3 100 c-2 55 0 100 5 100 5 0 42 -45
83 -100 65 -86 79 -99 105 -100 l30 0 0 160 0 160 -32 0 -32 0 -3 -97 -3 -98
-75 97 c-68 88 -78 98 -107 98 l-33 0 0 -160z"/>
<path d="M1740 500 c0 -29 1 -30 51 -30 l50 0 -3 -130 -3 -130 33 0 32 0 0
130 0 130 50 0 c49 0 50 1 50 30 l0 30 -130 0 -130 0 0 -30z"/>
<path d="M2070 370 l0 -160 30 0 30 0 0 160 0 160 -30 0 -30 0 0 -160z"/>
<path d="M120 330 l0 -120 30 0 30 0 0 120 0 120 -30 0 -30 0 0 -120z"/>
</g>
</svg>
