<?xml version="1.0" encoding="UTF-8"?>
<!DOCTYPE svg PUBLIC "-//W3C//DTD SVG 1.1//EN" "http://www.w3.org/Graphics/SVG/1.1/DTD/svg11.dtd">
<!-- Creator: CorelDRAW X8 -->
<svg xmlns="http://www.w3.org/2000/svg" xml:space="preserve" width="7.11111in" height="1.38888in" version="1.1" style="shape-rendering:geometricPrecision; text-rendering:geometricPrecision; image-rendering:optimizeQuality; fill-rule:evenodd; clip-rule:evenodd"
viewBox="0 0 7111 1389"
 xmlns:xlink="http://www.w3.org/1999/xlink">
 <defs>
  <style type="text/css">
   <![CDATA[
    .fil2 {fill:#007AC6}
    .fil1 {fill:#CE3DDB}
    .fil3 {fill:#FFC200}
    .fil0 {fill:#4A4A4A;fill-rule:nonzero}
   ]]>
  </style>
 </defs>
 <g id="Layer_x0020_1">
  <metadata id="CorelCorpID_0Corel-Layer"/>
  <g id="_1440784844512">
   <path class="fil0" d="M-1 11l332 0 360 964 357 -964 325 0 -553 1378 -267 0 -554 -1378 0 0zm1979 358l-4 -6 -23 56 -202 458c6,0 40,-13 45,-15l102 -36c6,-2 7,-2 11,-4 9,-1 15,-5 24,-9 1,11 0,24 0,35l-2 102c0,12 0,21 0,32l-2 91 -241 0 -128 307 -306 0 588 -1380 278 0 588 1380 -316 0 -125 -307 -254 0c1,-18 0,-47 0,-53l-2 -69c0,-36 0,-81 0,-118 0,-7 -2,-11 0,-18 5,2 16,6 22,7l92 31c15,6 60,22 71,24l-20 -47c-13,-35 -33,-77 -47,-113l-131 -303c-2,-6 -13,-35 -18,-45l0 0zm929 -358l302 0 0 1369 -302 0 0 -1369zm580 1140l755 -877 -732 0 0 -263 1119 0 0 229 -754 877 754 0 0 263 -1142 0 0 -229zm1405 -1140l301 0 0 1096 683 0 0 273 -984 0 0 -1369z"/>
   <rect class="fil1" x="6083" y="5" width="1029" height="267"/>
   <rect class="fil2" x="6083" y="1111" width="1029" height="267"/>
   <polygon class="fil3" points="6693,550 6083,550 6083,817 6693,817 "/>
  </g>
 </g>
</svg>
